<?xml version="1.0" standalone="no"?><!DOCTYPE svg PUBLIC "-//W3C//DTD SVG 1.1//EN" "http://www.w3.org/Graphics/SVG/1.1/DTD/svg11.dtd"><svg t="1665208656289" class="icon" viewBox="0 0 1024 1024" version="1.1" xmlns="http://www.w3.org/2000/svg" p-id="1852" xmlns:xlink="http://www.w3.org/1999/xlink" width="32" height="32"><path d="M574.79623111 513.39150222l238.67619556-238.67619555c17.69244445-17.69358222 17.69244445-46.37923555 0-64.07168-17.69358222-17.69244445-46.37809778-17.69244445-64.07168 0L510.72455111 449.31982222 272.04721778 210.64362667c-17.69358222-17.69244445-46.37809778-17.69244445-64.07168 0-17.69244445 17.69244445-17.69244445 46.37923555 0 64.07168l238.67619555 238.67619555-238.67619555 238.67733333c-17.69244445 17.69244445-17.69244445 46.37923555 0 64.07168 8.84622222 8.84622222 20.44131555 13.26990222 32.03640889 13.26990223 11.59509333 0 23.18904889-4.42254222 32.03640888-13.26990223l238.67619556-238.67619555 238.67619556 238.67619555c8.84736 8.84736 20.44017778 13.26990222 32.03640888 13.26990223 11.59281778 0 23.19018667-4.42481778 32.0364089-13.26990223 17.69244445-17.69244445 17.69244445-46.37923555 0-64.07168L574.79623111 513.39150222z" fill="" p-id="1853"></path></svg>