<?xml version="1.0" standalone="no"?><!DOCTYPE svg PUBLIC "-//W3C//DTD SVG 1.1//EN" "http://www.w3.org/Graphics/SVG/1.1/DTD/svg11.dtd"><svg t="1665208693054" class="icon" viewBox="0 0 1024 1024" version="1.1" xmlns="http://www.w3.org/2000/svg" p-id="2617" xmlns:xlink="http://www.w3.org/1999/xlink" width="32" height="32"><path d="M603.2 530.6H396.2c-17 0-31-14-31-31s14-31 31-31h207c17 0 31 14 31 31s-14.2 31-31 31z" p-id="2618"></path><path d="M499.6 634.2c-17 0-31-14-31-31V396c0-17 14-31 31-31s31 14 31 31v207c0 17-14 31.2-31 31.2z" p-id="2619"></path><path d="M491.4 915.6c-233.8 0-424.4-190.4-424.4-424.4S257.4 67 491.4 67s424.4 190.4 424.4 424.4-190.6 424.2-424.4 424.2z m0-786.6c-200 0-362.2 162.6-362.2 362.2s162.2 362.2 362.2 362.2 362.2-162.6 362.2-362.2S691.2 129 491.4 129zM926 957c-7.8 0-15.8-2.8-22-9.2l-82.8-82.8c-12-12-12-31.8 0-43.8 12-12 31.8-12 43.8 0L948 904c12 12 12 31.8 0 43.8-6.2 6.4-14.2 9.2-22 9.2z" p-id="2620"></path></svg>