<?xml version="1.0" standalone="no"?><!DOCTYPE svg PUBLIC "-//W3C//DTD SVG 1.1//EN" "http://www.w3.org/Graphics/SVG/1.1/DTD/svg11.dtd"><svg t="1665208682079" class="icon" viewBox="0 0 1024 1024" version="1.1" xmlns="http://www.w3.org/2000/svg" p-id="2314" xmlns:xlink="http://www.w3.org/1999/xlink" width="32" height="32"><path d="M812.970667 180.992c17.365333 0 31.701333 5.674667 43.008 16.981333 11.349333 11.349333 16.981333 25.685333 16.981333 43.008v482.005334c0 16.682667-5.802667 30.848-17.493333 42.538666-11.648 11.648-25.813333 17.493333-42.496 17.493334H210.944c-16.64 0-30.805333-5.845333-42.496-17.493334a57.856 57.856 0 0 1-17.493333-42.538666V240.981333c0-17.322667 5.674667-31.658667 16.981333-43.008 11.349333-11.306667 25.685333-16.981333 43.008-16.981333h602.026667z m0-61.013333H210.944a135.125333 135.125333 0 0 0-45.994667 10.026666 117.930667 117.930667 0 0 0-38.997333 26.026667c-11.349333 11.306667-20.181333 24.32-26.496 38.997333a114.901333 114.901333 0 0 0-9.514667 46.037334v482.005333c0 16 3.157333 31.36 9.514667 46.037333 6.314667 14.634667 15.146667 27.648 26.453333 38.997334a119.765333 119.765333 0 0 0 85.034667 34.986666h602.026667c16 0 31.36-2.986667 46.037333-8.96 14.677333-6.016 27.648-14.677333 38.997333-26.026666 11.306667-11.349333 20.138667-24.362667 26.453334-39.04a114.773333 114.773333 0 0 0 9.557333-45.994667V241.066667c0-16-3.2-31.36-9.514667-46.037334a124.416 124.416 0 0 0-26.496-38.997333 117.888 117.888 0 0 0-38.997333-26.026667 135.125333 135.125333 0 0 0-46.037333-10.026666z m-119.978667 180.992a28.330667 28.330667 0 0 0-21.504 9.002666 29.568 29.568 0 0 0-8.533333 20.992v301.013334a29.141333 29.141333 0 0 0 30.037333 29.994666 29.141333 29.141333 0 0 0 29.994667-29.994666V330.965333a29.141333 29.141333 0 0 0-29.994667-29.994666z m-361.984 0a28.757333 28.757333 0 0 0-20.992 9.002666 28.757333 28.757333 0 0 0-9.002667 20.992v301.013334a29.141333 29.141333 0 0 0 29.994667 29.994666 29.141333 29.141333 0 0 0 30.037333-29.994666V330.965333a29.568 29.568 0 0 0-8.533333-20.992 28.330667 28.330667 0 0 0-21.504-8.96zM512 361.045333a32.853333 32.853333 0 0 0-21.504 9.514667 29.141333 29.141333 0 0 0-8.533333 21.504v29.994667c0 8.021333 2.858667 14.848 8.533333 20.48 5.674667 5.717333 12.8 8.533333 21.504 8.533333a29.141333 29.141333 0 0 0 29.994667-29.013333v-30.037334a28.330667 28.330667 0 0 0-8.96-21.461333A33.834667 33.834667 0 0 0 512 360.96zM512 512a29.141333 29.141333 0 0 0-30.037333 30.037333v29.994667a29.141333 29.141333 0 0 0 30.037333 30.037333 29.141333 29.141333 0 0 0 29.994667-30.037333v-30.037333a28.757333 28.757333 0 0 0-8.96-20.992 28.757333 28.757333 0 0 0-21.034667-8.96V512z" p-id="2315"></path></svg>