<?xml version="1.0" standalone="no"?><!DOCTYPE svg PUBLIC "-//W3C//DTD SVG 1.1//EN" "http://www.w3.org/Graphics/SVG/1.1/DTD/svg11.dtd"><svg t="1665208703537" class="icon" viewBox="0 0 1024 1024" version="1.1" xmlns="http://www.w3.org/2000/svg" p-id="2928" xmlns:xlink="http://www.w3.org/1999/xlink" width="32" height="32"><path d="M708.6 957h-186.2c-171.8 0-248.4-76.6-248.4-248.4v-186.2c0-171.8 76.6-248.4 248.4-248.4h186.2c171.8 0 248.4 76.6 248.4 248.4v186.2c0 171.8-76.6 248.4-248.4 248.4zM522.4 336c-137.4 0-186.2 48.8-186.2 186.2v186.2c0 137.4 48.8 186.2 186.2 186.2h186.2c137.4 0 186.2-48.8 186.2-186.2v-186.2c0-137.4-48.8-186.2-186.2-186.2h-186.2zM98 418.8c-17 0-31-14-31-31 0-176.8 144-320.8 320.8-320.8 11.2 0 21.6 6.2 27 15.8 5.4 9.6 5.4 21.6-0.4 31l-43.4 72.8c-8.6 14.4-27.8 19.4-42.6 10.4-14.4-8.6-19.4-27.8-10.4-42.6l11.2-18.6c-114.6 27-200 129.6-200 252-0.2 17-14.2 31-31.2 31z" p-id="2929"></path></svg>