<?xml version="1.0" standalone="no"?><!DOCTYPE svg PUBLIC "-//W3C//DTD SVG 1.1//EN" "http://www.w3.org/Graphics/SVG/1.1/DTD/svg11.dtd"><svg t="1665208709418" class="icon" viewBox="0 0 1024 1024" version="1.1" xmlns="http://www.w3.org/2000/svg" p-id="3082" xmlns:xlink="http://www.w3.org/1999/xlink" width="32" height="32"><path d="M501.6 957h-186.2c-171.8 0-248.4-76.6-248.4-248.4v-186.2c0-171.8 76.6-248.4 248.4-248.4h186.2c171.8 0 248.4 76.6 248.4 248.4v186.2c0 171.8-76.6 248.4-248.4 248.4zM315.4 336c-137.4 0-186.2 48.8-186.2 186.2v186.2c0 137.4 48.8 186.2 186.2 186.2h186.2c137.4 0 186.2-48.8 186.2-186.2v-186.2c0-137.4-48.8-186.2-186.2-186.2h-186.2zM926 418.8c-17 0-31-14-31-31 0-122.6-85.2-225.2-200-252l11.2 18.6c8.6 15 4.2 34-10.8 42.6-15 8.6-34 4.2-42.6-10.8l-43.4-72.4c-5.8-9.6-5.8-21.6-0.4-31 5.8-9.6 16.2-15.8 27.4-15.8 176.8 0 320.8 144 320.8 320.8-0.2 17-14.2 31-31.2 31z" p-id="3083"></path></svg>